<svg xmlns="http://www.w3.org/2000/svg" width="227" height="63" fill="none" viewBox="0 0 227 63">
  <g filter="url(#a)">
    <path fill="#F70" d="M2 15C2 6.716 8.716 0 17 0h189c8.284 0 15 6.716 15 15v25c0 8.284-6.716 15-15 15H17C8.716 55 2 48.284 2 40V15Z"/>
    <path fill="#fff" d="M38.344 41.36c-2.773 0-5.147-.587-7.12-1.76-1.973-1.173-3.493-2.84-4.56-5-1.04-2.16-1.56-4.733-1.56-7.72 0-2.24.293-4.24.88-6 .613-1.787 1.48-3.293 2.6-4.52 1.147-1.253 2.547-2.213 4.2-2.88 1.653-.693 3.507-1.04 5.56-1.04 1.653 0 3.227.24 4.72.72 1.493.453 2.787 1.133 3.88 2.04.347.267.573.573.68.92.133.32.147.64.04.96-.08.293-.24.547-.48.76-.213.187-.48.28-.8.28-.32 0-.68-.133-1.08-.4a9.876 9.876 0 0 0-3.16-1.72c-1.147-.373-2.387-.56-3.72-.56-2.107 0-3.893.453-5.36 1.36-1.467.88-2.573 2.173-3.32 3.88-.747 1.707-1.12 3.773-1.12 6.2s.373 4.507 1.12 6.24c.747 1.707 1.853 3.013 3.32 3.92 1.467.88 3.253 1.32 5.36 1.32 1.307 0 2.547-.187 3.72-.56 1.173-.4 2.253-.987 3.24-1.76.4-.267.76-.387 1.08-.36.32 0 .587.093.8.28.213.187.36.427.44.72.107.293.107.6 0 .92-.08.32-.28.6-.6.84-1.12.96-2.44 1.693-3.96 2.2-1.493.48-3.093.72-4.8.72ZM54.738 41c-.533 0-.947-.147-1.24-.44-.293-.32-.44-.747-.44-1.28V14.32c0-.56.133-.987.4-1.28.294-.293.707-.44 1.24-.44s.934.147 1.2.44c.293.293.44.72.44 1.28v23.8h13.12c.48 0 .853.133 1.12.4.267.24.4.587.4 1.04 0 .453-.133.813-.4 1.08-.267.24-.64.36-1.12.36h-14.72Zm21.679.28c-.534 0-.947-.147-1.24-.44-.267-.32-.4-.747-.4-1.28V14.24c0-.56.133-.987.4-1.28.293-.293.706-.44 1.24-.44.533 0 .933.147 1.2.44.293.293.44.72.44 1.28v25.32c0 .533-.133.96-.4 1.28-.267.293-.68.44-1.24.44Zm20.833.08c-2.773 0-5.146-.587-7.12-1.76-1.973-1.173-3.493-2.84-4.56-5-1.04-2.16-1.56-4.733-1.56-7.72 0-2.24.294-4.24.88-6 .614-1.787 1.48-3.293 2.6-4.52 1.147-1.253 2.547-2.213 4.2-2.88 1.654-.693 3.507-1.04 5.56-1.04 1.654 0 3.227.24 4.72.72 1.494.453 2.787 1.133 3.88 2.04.347.267.574.573.68.92.134.32.147.64.04.96-.08.293-.24.547-.48.76-.213.187-.48.28-.8.28-.32 0-.68-.133-1.08-.4a9.872 9.872 0 0 0-3.16-1.72c-1.146-.373-2.386-.56-3.72-.56-2.106 0-3.893.453-5.36 1.36-1.466.88-2.573 2.173-3.32 3.88-.746 1.707-1.12 3.773-1.12 6.2s.374 4.507 1.12 6.24c.747 1.707 1.854 3.013 3.32 3.92 1.467.88 3.254 1.32 5.36 1.32 1.307 0 2.547-.187 3.72-.56 1.174-.4 2.254-.987 3.24-1.76.4-.267.76-.387 1.08-.36.32 0 .587.093.8.28.214.187.36.427.44.72.107.293.107.6 0 .92-.08.32-.28.6-.6.84-1.12.96-2.44 1.693-3.96 2.2-1.493.48-3.093.72-4.8.72Zm16.354-.08c-.533 0-.946-.147-1.24-.44-.266-.32-.4-.747-.4-1.28V14.2c0-.56.134-.973.4-1.24.294-.293.707-.44 1.24-.44.534 0 .934.147 1.2.44.294.267.44.68.44 1.24v11.4h.08l13.04-12.16c.32-.32.64-.547.96-.68.32-.16.667-.24 1.04-.24.507 0 .867.12 1.08.36.24.24.334.533.28.88-.053.347-.24.68-.56 1l-13.64 12.64.04-1.76 14.24 13.16c.4.373.614.76.64 1.16a1.18 1.18 0 0 1-.36.96c-.24.24-.613.36-1.12.36-.4 0-.746-.093-1.04-.28-.266-.16-.573-.413-.92-.76l-13.68-12.52h-.08v11.84c0 .533-.133.96-.4 1.28-.266.293-.68.44-1.24.44Zm35.273 0c-.48 0-.853-.133-1.12-.4-.267-.293-.4-.693-.4-1.2V14.12c0-.533.133-.933.4-1.2.267-.267.64-.4 1.12-.4.427 0 .76.093 1 .28.267.16.507.44.72.84l10.96 20.64h-1.2l10.92-20.64c.213-.4.44-.68.68-.84.24-.187.587-.28 1.04-.28.453 0 .813.133 1.08.4.267.267.4.667.4 1.2v25.56c0 .507-.133.907-.4 1.2-.24.267-.613.4-1.12.4-.48 0-.853-.133-1.12-.4-.267-.293-.4-.693-.4-1.2V17.2h.96l-10 18.76c-.187.347-.387.6-.6.76-.187.133-.467.2-.84.2-.373 0-.667-.08-.88-.24-.213-.16-.4-.4-.56-.72l-10.12-18.8h.96v22.52c0 .507-.133.907-.4 1.2-.24.267-.6.4-1.08.4Zm34.419-.28c-.587 0-1.04-.147-1.36-.44-.294-.32-.44-.773-.44-1.36V14.6c0-.587.146-1.027.44-1.32.32-.32.773-.48 1.36-.48h14.88c.453 0 .8.12 1.04.36s.36.573.36 1c0 .453-.12.8-.36 1.04s-.587.36-1.04.36h-13.48v9.76h12.64c.453 0 .8.12 1.04.36.24.213.36.547.36 1 0 .453-.12.8-.36 1.04s-.587.36-1.04.36h-12.64v10.16h13.48c.453 0 .8.12 1.04.36s.36.573.36 1c0 .453-.12.8-.36 1.04s-.587.36-1.04.36h-14.88Z"/>
    <path fill="#fff" fill-opacity=".2" d="M38.344 41.36c-2.773 0-5.147-.587-7.12-1.76-1.973-1.173-3.493-2.84-4.56-5-1.04-2.16-1.56-4.733-1.56-7.72 0-2.24.293-4.24.88-6 .613-1.787 1.48-3.293 2.6-4.52 1.147-1.253 2.547-2.213 4.2-2.88 1.653-.693 3.507-1.04 5.56-1.04 1.653 0 3.227.24 4.72.72 1.493.453 2.787 1.133 3.88 2.04.347.267.573.573.68.92.133.32.147.64.04.96-.08.293-.24.547-.48.76-.213.187-.48.28-.8.28-.32 0-.68-.133-1.08-.4a9.876 9.876 0 0 0-3.16-1.72c-1.147-.373-2.387-.56-3.72-.56-2.107 0-3.893.453-5.36 1.36-1.467.88-2.573 2.173-3.32 3.88-.747 1.707-1.12 3.773-1.12 6.2s.373 4.507 1.12 6.24c.747 1.707 1.853 3.013 3.32 3.92 1.467.88 3.253 1.32 5.36 1.32 1.307 0 2.547-.187 3.72-.56 1.173-.4 2.253-.987 3.24-1.76.4-.267.76-.387 1.08-.36.32 0 .587.093.8.28.213.187.36.427.44.72.107.293.107.6 0 .92-.08.32-.28.6-.6.84-1.12.96-2.44 1.693-3.96 2.2-1.493.48-3.093.72-4.8.72ZM54.738 41c-.533 0-.947-.147-1.24-.44-.293-.32-.44-.747-.44-1.28V14.32c0-.56.133-.987.4-1.28.294-.293.707-.44 1.24-.44s.934.147 1.2.44c.293.293.44.72.44 1.28v23.8h13.12c.48 0 .853.133 1.12.4.267.24.4.587.4 1.04 0 .453-.133.813-.4 1.08-.267.24-.64.36-1.12.36h-14.72Zm21.679.28c-.534 0-.947-.147-1.24-.44-.267-.32-.4-.747-.4-1.28V14.24c0-.56.133-.987.4-1.28.293-.293.706-.44 1.24-.44.533 0 .933.147 1.2.44.293.293.44.72.44 1.28v25.32c0 .533-.133.96-.4 1.28-.267.293-.68.44-1.24.44Zm20.833.08c-2.773 0-5.146-.587-7.12-1.76-1.973-1.173-3.493-2.84-4.56-5-1.04-2.16-1.56-4.733-1.56-7.72 0-2.24.294-4.24.88-6 .614-1.787 1.48-3.293 2.6-4.52 1.147-1.253 2.547-2.213 4.2-2.88 1.654-.693 3.507-1.04 5.56-1.04 1.654 0 3.227.24 4.72.72 1.494.453 2.787 1.133 3.88 2.04.347.267.574.573.68.92.134.32.147.64.04.96-.08.293-.24.547-.48.76-.213.187-.48.28-.8.28-.32 0-.68-.133-1.08-.4a9.872 9.872 0 0 0-3.16-1.72c-1.146-.373-2.386-.56-3.72-.56-2.106 0-3.893.453-5.36 1.36-1.466.88-2.573 2.173-3.32 3.88-.746 1.707-1.12 3.773-1.12 6.2s.374 4.507 1.12 6.24c.747 1.707 1.854 3.013 3.32 3.92 1.467.88 3.254 1.32 5.36 1.32 1.307 0 2.547-.187 3.72-.56 1.174-.4 2.254-.987 3.24-1.76.4-.267.76-.387 1.08-.36.32 0 .587.093.8.28.214.187.36.427.44.72.107.293.107.6 0 .92-.08.32-.28.6-.6.84-1.12.96-2.44 1.693-3.96 2.2-1.493.48-3.093.72-4.8.72Zm16.354-.08c-.533 0-.946-.147-1.24-.44-.266-.32-.4-.747-.4-1.28V14.2c0-.56.134-.973.4-1.24.294-.293.707-.44 1.24-.44.534 0 .934.147 1.2.44.294.267.44.68.44 1.24v11.4h.08l13.04-12.16c.32-.32.64-.547.96-.68.32-.16.667-.24 1.04-.24.507 0 .867.12 1.08.36.24.24.334.533.28.88-.053.347-.24.68-.56 1l-13.64 12.64.04-1.76 14.24 13.16c.4.373.614.76.64 1.16a1.18 1.18 0 0 1-.36.96c-.24.24-.613.36-1.12.36-.4 0-.746-.093-1.04-.28-.266-.16-.573-.413-.92-.76l-13.68-12.52h-.08v11.84c0 .533-.133.96-.4 1.28-.266.293-.68.44-1.24.44Zm35.273 0c-.48 0-.853-.133-1.12-.4-.267-.293-.4-.693-.4-1.2V14.12c0-.533.133-.933.4-1.2.267-.267.64-.4 1.12-.4.427 0 .76.093 1 .28.267.16.507.44.72.84l10.96 20.64h-1.2l10.92-20.64c.213-.4.44-.68.68-.84.24-.187.587-.28 1.04-.28.453 0 .813.133 1.08.4.267.267.4.667.4 1.2v25.56c0 .507-.133.907-.4 1.2-.24.267-.613.4-1.12.4-.48 0-.853-.133-1.12-.4-.267-.293-.4-.693-.4-1.2V17.2h.96l-10 18.76c-.187.347-.387.6-.6.76-.187.133-.467.2-.84.2-.373 0-.667-.08-.88-.24-.213-.16-.4-.4-.56-.72l-10.12-18.8h.96v22.52c0 .507-.133.907-.4 1.2-.24.267-.6.4-1.08.4Zm34.419-.28c-.587 0-1.04-.147-1.36-.44-.294-.32-.44-.773-.44-1.36V14.6c0-.587.146-1.027.44-1.32.32-.32.773-.48 1.36-.48h14.88c.453 0 .8.12 1.04.36s.36.573.36 1c0 .453-.12.8-.36 1.04s-.587.36-1.04.36h-13.48v9.76h12.64c.453 0 .8.12 1.04.36.24.213.36.547.36 1 0 .453-.12.8-.36 1.04s-.587.36-1.04.36h-12.64v10.16h13.48c.453 0 .8.12 1.04.36s.36.573.36 1c0 .453-.12.8-.36 1.04s-.587.36-1.04.36h-14.88Z"/>
  </g>
  <defs>
    <filter id="a" width="227" height="63" x="0" y="0" color-interpolation-filters="sRGB" filterUnits="userSpaceOnUse">
      <feFlood flood-opacity="0" result="BackgroundImageFix"/>
      <feColorMatrix in="SourceAlpha" result="hardAlpha" values="0 0 0 0 0 0 0 0 0 0 0 0 0 0 0 0 0 0 127 0"/>
      <feOffset dx="2" dy="4"/>
      <feGaussianBlur stdDeviation="2"/>
      <feComposite in2="hardAlpha" operator="out"/>
      <feColorMatrix values="0 0 0 0 0 0 0 0 0 0 0 0 0 0 0 0 0 0 0.3 0"/>
      <feBlend in2="BackgroundImageFix" result="effect1_dropShadow_146_25"/>
      <feBlend in="SourceGraphic" in2="effect1_dropShadow_146_25" result="shape"/>
    </filter>
  </defs>
</svg>
