<svg xmlns="http://www.w3.org/2000/svg" width="227" height="63" fill="none" viewBox="0 0 227 63">
  <g filter="url(#a)">
    <path fill="#F70" d="M2 15C2 6.716 8.716 0 17 0h189c8.284 0 15 6.716 15 15v25c0 8.284-6.716 15-15 15H17C8.716 55 2 48.284 2 40V15Z"/>
    <path fill="#fff" d="M49.952 41.36c-1.254 0-2.48-.107-3.68-.32-1.2-.213-2.32-.52-3.36-.92a11.999 11.999 0 0 1-2.76-1.52c-.32-.24-.547-.507-.68-.8a1.836 1.836 0 0 1-.08-.92c.08-.32.213-.587.4-.8a1.2 1.2 0 0 1 .76-.36c.293-.027.613.067.96.28 1.2.853 2.48 1.48 3.84 1.88 1.36.373 2.893.56 4.6.56 2.4 0 4.173-.44 5.32-1.32 1.173-.907 1.76-2.093 1.76-3.56 0-1.2-.427-2.133-1.28-2.8-.827-.693-2.227-1.24-4.2-1.64l-4.16-.84c-2.507-.533-4.387-1.4-5.64-2.6-1.227-1.227-1.84-2.853-1.84-4.88 0-1.253.253-2.387.76-3.4a7.555 7.555 0 0 1 2.12-2.64c.906-.747 1.986-1.32 3.24-1.72 1.253-.4 2.64-.6 4.16-.6 1.68 0 3.24.24 4.68.72a11.987 11.987 0 0 1 3.96 2.08c.293.24.493.52.6.84.106.293.12.587.04.88-.08.267-.227.493-.44.68-.187.187-.44.293-.76.32-.294.027-.627-.08-1-.32-1.067-.8-2.174-1.373-3.32-1.72-1.147-.373-2.414-.56-3.8-.56-1.414 0-2.64.213-3.68.64-1.014.427-1.814 1.053-2.4 1.88-.56.8-.84 1.733-.84 2.8 0 1.28.386 2.293 1.16 3.04.8.747 2.093 1.293 3.88 1.64l4.16.88c2.693.56 4.68 1.413 5.96 2.56 1.306 1.12 1.96 2.653 1.96 4.6 0 1.173-.24 2.253-.72 3.24a7.356 7.356 0 0 1-2.08 2.56c-.907.693-2 1.227-3.28 1.6-1.28.373-2.72.56-4.32.56Zm26.609 0c-1.867 0-3.507-.24-4.92-.72-1.387-.507-2.56-1.24-3.52-2.2-.96-.987-1.68-2.2-2.16-3.64-.48-1.44-.72-3.093-.72-4.96V14.2c0-.56.133-.973.4-1.24.293-.293.707-.44 1.24-.44s.933.147 1.2.44c.293.267.44.68.44 1.24v15.48c0 2.933.68 5.133 2.04 6.6 1.36 1.44 3.36 2.16 6 2.16s4.627-.72 5.96-2.16c1.333-1.467 2-3.667 2-6.6V14.2c0-.56.147-.973.44-1.24.293-.293.707-.44 1.24-.44.507 0 .893.147 1.16.44.293.267.44.68.44 1.24v15.64c0 2.48-.427 4.587-1.28 6.32-.827 1.733-2.08 3.04-3.76 3.92-1.68.853-3.747 1.28-6.2 1.28ZM96.342 41c-.586 0-1.04-.147-1.36-.44-.293-.32-.44-.773-.44-1.36V14.6c0-.587.147-1.027.44-1.32.32-.32.774-.48 1.36-.48h9.481c1.946 0 3.586.293 4.92.88 1.36.56 2.4 1.387 3.12 2.48.72 1.093 1.08 2.427 1.08 4 0 1.76-.52 3.227-1.56 4.4-1.014 1.173-2.4 1.947-4.16 2.32v-.56c2 .24 3.56.96 4.68 2.16 1.146 1.2 1.72 2.787 1.72 4.76 0 2.507-.814 4.427-2.44 5.76-1.627 1.333-3.92 2-6.88 2h-9.96Zm1.4-2.64h8.241c2.133 0 3.733-.427 4.8-1.28 1.066-.853 1.6-2.147 1.6-3.88 0-1.76-.534-3.053-1.6-3.88-1.067-.853-2.667-1.28-4.8-1.28h-8.24v10.32Zm0-12.96h7.601c2.08 0 3.653-.427 4.72-1.28 1.093-.853 1.64-2.08 1.64-3.68 0-1.653-.547-2.893-1.64-3.72-1.067-.853-2.64-1.28-4.72-1.28h-7.6v9.96Zm25.432 15.88c-.48 0-.854-.133-1.12-.4-.267-.293-.4-.693-.4-1.2V14.12c0-.533.133-.933.4-1.2.266-.267.64-.4 1.12-.4.426 0 .76.093 1 .28.266.16.506.44.72.84l10.96 20.64h-1.2l10.92-20.64c.213-.4.44-.68.68-.84.24-.187.586-.28 1.04-.28.453 0 .813.133 1.08.4.266.267.4.667.4 1.2v25.56c0 .507-.134.907-.4 1.2-.24.267-.614.4-1.12.4-.48 0-.854-.133-1.12-.4-.267-.293-.4-.693-.4-1.2V17.2h.96l-10 18.76c-.187.347-.387.6-.6.76-.187.133-.467.2-.84.2-.374 0-.667-.08-.88-.24-.214-.16-.4-.4-.56-.72l-10.12-18.8h.96v22.52c0 .507-.134.907-.4 1.2-.24.267-.6.4-1.08.4Zm34.259 0c-.534 0-.947-.147-1.24-.44-.267-.32-.4-.747-.4-1.28V14.24c0-.56.133-.987.4-1.28.293-.293.706-.44 1.24-.44.533 0 .933.147 1.2.44.293.293.44.72.44 1.28v25.32c0 .533-.134.96-.4 1.28-.267.293-.68.44-1.24.44Zm17.193 0c-.507 0-.907-.147-1.2-.44-.293-.32-.44-.747-.44-1.28V15.64h-9c-.48 0-.853-.133-1.12-.4-.267-.267-.4-.613-.4-1.04 0-.453.133-.8.4-1.04s.64-.36 1.12-.36h21.32c.48 0 .853.12 1.12.36.267.24.4.587.4 1.04 0 .453-.133.813-.4 1.08-.267.24-.64.36-1.12.36h-9v23.92c0 .533-.147.96-.44 1.28-.267.293-.68.44-1.24.44Z"/>
    <path fill="#fff" fill-opacity=".2" d="M49.952 41.36c-1.254 0-2.48-.107-3.68-.32-1.2-.213-2.32-.52-3.36-.92a11.999 11.999 0 0 1-2.76-1.52c-.32-.24-.547-.507-.68-.8a1.836 1.836 0 0 1-.08-.92c.08-.32.213-.587.4-.8a1.2 1.2 0 0 1 .76-.36c.293-.027.613.067.96.28 1.2.853 2.48 1.48 3.84 1.88 1.36.373 2.893.56 4.6.56 2.4 0 4.173-.44 5.32-1.32 1.173-.907 1.76-2.093 1.76-3.56 0-1.2-.427-2.133-1.28-2.8-.827-.693-2.227-1.24-4.2-1.64l-4.16-.84c-2.507-.533-4.387-1.4-5.64-2.6-1.227-1.227-1.84-2.853-1.84-4.88 0-1.253.253-2.387.76-3.4a7.555 7.555 0 0 1 2.12-2.64c.906-.747 1.986-1.32 3.24-1.72 1.253-.4 2.64-.6 4.16-.6 1.68 0 3.24.24 4.68.72a11.987 11.987 0 0 1 3.96 2.08c.293.24.493.52.6.84.106.293.12.587.04.88-.08.267-.227.493-.44.68-.187.187-.44.293-.76.32-.294.027-.627-.08-1-.32-1.067-.8-2.174-1.373-3.32-1.72-1.147-.373-2.414-.56-3.8-.56-1.414 0-2.64.213-3.68.64-1.014.427-1.814 1.053-2.4 1.88-.56.8-.84 1.733-.84 2.8 0 1.28.386 2.293 1.16 3.04.8.747 2.093 1.293 3.88 1.64l4.16.88c2.693.56 4.68 1.413 5.96 2.56 1.306 1.12 1.96 2.653 1.96 4.6 0 1.173-.24 2.253-.72 3.24a7.356 7.356 0 0 1-2.08 2.56c-.907.693-2 1.227-3.28 1.6-1.28.373-2.72.56-4.32.56Zm26.609 0c-1.867 0-3.507-.24-4.92-.72-1.387-.507-2.56-1.24-3.52-2.2-.96-.987-1.68-2.2-2.16-3.64-.48-1.44-.72-3.093-.72-4.96V14.2c0-.56.133-.973.4-1.24.293-.293.707-.44 1.24-.44s.933.147 1.2.44c.293.267.44.68.44 1.24v15.48c0 2.933.68 5.133 2.04 6.6 1.36 1.44 3.36 2.16 6 2.16s4.627-.72 5.96-2.16c1.333-1.467 2-3.667 2-6.6V14.2c0-.56.147-.973.44-1.24.293-.293.707-.44 1.24-.44.507 0 .893.147 1.16.44.293.267.44.68.44 1.24v15.64c0 2.48-.427 4.587-1.28 6.32-.827 1.733-2.08 3.04-3.76 3.92-1.68.853-3.747 1.28-6.2 1.28ZM96.342 41c-.586 0-1.04-.147-1.36-.44-.293-.32-.44-.773-.44-1.36V14.6c0-.587.147-1.027.44-1.32.32-.32.774-.48 1.36-.48h9.481c1.946 0 3.586.293 4.92.88 1.36.56 2.4 1.387 3.12 2.48.72 1.093 1.08 2.427 1.08 4 0 1.76-.52 3.227-1.56 4.4-1.014 1.173-2.4 1.947-4.16 2.32v-.56c2 .24 3.56.96 4.68 2.16 1.146 1.2 1.72 2.787 1.72 4.76 0 2.507-.814 4.427-2.44 5.76-1.627 1.333-3.92 2-6.88 2h-9.96Zm1.4-2.64h8.241c2.133 0 3.733-.427 4.8-1.28 1.066-.853 1.6-2.147 1.6-3.88 0-1.76-.534-3.053-1.6-3.88-1.067-.853-2.667-1.28-4.8-1.28h-8.24v10.32Zm0-12.96h7.601c2.08 0 3.653-.427 4.72-1.28 1.093-.853 1.64-2.08 1.64-3.68 0-1.653-.547-2.893-1.64-3.72-1.067-.853-2.64-1.28-4.72-1.28h-7.6v9.96Zm25.432 15.88c-.48 0-.854-.133-1.12-.4-.267-.293-.4-.693-.4-1.2V14.12c0-.533.133-.933.4-1.2.266-.267.64-.4 1.12-.4.426 0 .76.093 1 .28.266.16.506.44.72.84l10.96 20.64h-1.2l10.92-20.64c.213-.4.44-.68.68-.84.24-.187.586-.28 1.04-.28.453 0 .813.133 1.08.4.266.267.4.667.4 1.2v25.56c0 .507-.134.907-.4 1.2-.24.267-.614.4-1.12.4-.48 0-.854-.133-1.12-.4-.267-.293-.4-.693-.4-1.2V17.2h.96l-10 18.76c-.187.347-.387.6-.6.76-.187.133-.467.2-.84.2-.374 0-.667-.08-.88-.24-.214-.16-.4-.4-.56-.72l-10.12-18.8h.96v22.52c0 .507-.134.907-.4 1.2-.24.267-.6.4-1.08.4Zm34.259 0c-.534 0-.947-.147-1.24-.44-.267-.32-.4-.747-.4-1.28V14.24c0-.56.133-.987.4-1.28.293-.293.706-.44 1.24-.44.533 0 .933.147 1.2.44.293.293.44.72.44 1.28v25.32c0 .533-.134.96-.4 1.28-.267.293-.68.44-1.24.44Zm17.193 0c-.507 0-.907-.147-1.2-.44-.293-.32-.44-.747-.44-1.28V15.64h-9c-.48 0-.853-.133-1.12-.4-.267-.267-.4-.613-.4-1.04 0-.453.133-.8.4-1.04s.64-.36 1.12-.36h21.32c.48 0 .853.12 1.12.36.267.24.4.587.4 1.04 0 .453-.133.813-.4 1.08-.267.24-.64.36-1.12.36h-9v23.92c0 .533-.147.96-.44 1.28-.267.293-.68.44-1.24.44Z"/>
  </g>
  <defs>
    <filter id="a" width="227" height="63" x="0" y="0" color-interpolation-filters="sRGB" filterUnits="userSpaceOnUse">
      <feFlood flood-opacity="0" result="BackgroundImageFix"/>
      <feColorMatrix in="SourceAlpha" result="hardAlpha" values="0 0 0 0 0 0 0 0 0 0 0 0 0 0 0 0 0 0 127 0"/>
      <feOffset dx="2" dy="4"/>
      <feGaussianBlur stdDeviation="2"/>
      <feComposite in2="hardAlpha" operator="out"/>
      <feColorMatrix values="0 0 0 0 0 0 0 0 0 0 0 0 0 0 0 0 0 0 0.3 0"/>
      <feBlend in2="BackgroundImageFix" result="effect1_dropShadow_28_364"/>
      <feBlend in="SourceGraphic" in2="effect1_dropShadow_28_364" result="shape"/>
    </filter>
  </defs>
</svg>
