<svg xmlns="http://www.w3.org/2000/svg" width="174" height="41" fill="none" viewBox="0 0 174 41">
  <g filter="url(#a)">
    <path fill="#D9D9D9" d="M88.67 30.87a4 4 0 0 1-2.34.018L38.045 16.52c-4.404-1.31-3.485-7.798 1.11-7.833l96.337-.749c4.595-.036 5.615 6.437 1.232 7.816L88.67 30.869Z"/>
    <path stroke="#D9D9D9" d="M86.472 30.408 38.189 16.042c-3.854-1.146-3.05-6.823.97-6.854l96.338-.749c4.021-.031 4.913 5.632 1.078 6.839L88.52 30.392a3.5 3.5 0 0 1-2.048.016Z"/>
  </g>
  <defs>
    <filter id="a" width="114.345" height="33.115" x="32.184" y="6.939" color-interpolation-filters="sRGB" filterUnits="userSpaceOnUse">
      <feFlood flood-opacity="0" result="BackgroundImageFix"/>
      <feColorMatrix in="SourceAlpha" result="hardAlpha" values="0 0 0 0 0 0 0 0 0 0 0 0 0 0 0 0 0 0 127 0"/>
      <feOffset dx="2" dy="4"/>
      <feGaussianBlur stdDeviation="2.5"/>
      <feComposite in2="hardAlpha" operator="out"/>
      <feColorMatrix values="0 0 0 0 0 0 0 0 0 0 0 0 0 0 0 0 0 0 0.25 0"/>
      <feBlend in2="BackgroundImageFix" result="effect1_dropShadow_121_2"/>
      <feBlend in="SourceGraphic" in2="effect1_dropShadow_121_2" result="shape"/>
    </filter>
  </defs>
</svg>
